<?xml version="1.0" standalone="no"?>
<!DOCTYPE svg PUBLIC "-//W3C//DTD SVG 20010904//EN"
 "http://www.w3.org/TR/2001/REC-SVG-20010904/DTD/svg10.dtd">
<svg version="1.0" xmlns="http://www.w3.org/2000/svg"
 width="512.000000pt" height="512.000000pt" viewBox="0 0 512.000000 512.000000"
 preserveAspectRatio="xMidYMid meet">

<g transform="translate(0.000000,512.000000) scale(0.100000,-0.100000)"
fill="#000000" stroke="none">
<path d="M1046 5099 l-26 -20 0 -655 c0 -641 0 -654 20 -674 30 -30 83 -27
109 6 21 26 21 35 21 620 l0 594 145 0 145 0 0 -594 c0 -585 0 -594 21 -620
26 -33 79 -36 109 -6 20 20 20 33 20 670 l0 651 -25 24 -24 25 -244 0 c-232 0
-246 -1 -271 -21z"/>
<path d="M1720 4600 c-19 -19 -20 -33 -20 -425 0 -392 1 -406 20 -425 27 -27
81 -26 106 1 18 20 19 43 22 370 l3 349 144 0 145 0 0 -348 0 -349 23 -21 c31
-29 77 -29 105 1 22 23 22 26 22 419 0 385 -1 396 -21 422 l-20 26 -255 0
c-241 0 -255 -1 -274 -20z"/>
<path d="M2873 4452 c-95 -34 -152 -84 -204 -182 -24 -45 -24 -49 -29 -410
l-5 -365 -1160 -5 -1160 -5 -65 -32 c-121 -59 -216 -181 -240 -308 -8 -43 -10
-351 -8 -1095 l3 -1035 33 -67 c41 -83 120 -158 200 -189 46 -18 83 -23 192
-27 127 -4 137 -3 163 18 15 12 27 30 27 41 0 18 8 19 140 19 120 0 140 -2
140 -15 0 -9 11 -27 25 -40 l24 -25 322 0 c301 0 321 -1 317 -18 -2 -9 -33
-140 -68 -290 l-64 -272 -146 0 c-133 0 -148 -2 -168 -20 -30 -28 -30 -82 0
-110 22 -20 30 -20 888 -20 858 0 866 0 888 20 30 28 30 82 0 110 -20 18 -35
20 -168 20 l-146 0 -64 273 c-35 149 -66 280 -68 290 -4 16 26 17 530 17 l533
0 12 -75 c47 -296 280 -548 583 -631 99 -27 301 -25 403 4 276 79 480 283 559
559 29 102 31 304 4 403 -70 258 -269 472 -515 553 -147 49 -330 54 -468 12
-26 -8 -49 -15 -50 -15 -2 0 -3 137 -3 304 l0 304 198 4 c192 3 198 4 259 32
75 34 134 95 171 174 l27 57 3 341 c3 334 3 341 -18 367 -24 31 -73 37 -106
13 -18 -14 -19 -32 -24 -358 -5 -339 -5 -343 -29 -381 -13 -21 -42 -50 -64
-65 l-41 -27 -365 -3 -366 -3 -165 -124 -165 -124 -3 102 c-4 152 3 147 -237
147 -178 0 -194 1 -235 23 -24 12 -58 39 -74 60 l-31 39 -3 861 c-1 474 0 877
3 895 7 40 68 110 112 129 26 10 174 13 770 13 694 0 740 -2 778 -19 50 -22
91 -69 105 -119 6 -22 10 -176 10 -384 0 -335 1 -349 20 -368 30 -30 83 -27
109 6 20 26 21 38 21 379 0 326 -2 358 -20 418 -26 84 -96 164 -178 204 l-57
28 -770 2 c-721 2 -773 1 -822 -15z m-231 -1579 l3 -468 26 -55 c33 -70 95
-132 167 -167 54 -27 66 -28 220 -32 l162 -3 0 -133 c0 -119 2 -135 21 -159
42 -53 65 -42 303 134 l215 160 76 0 75 0 0 -320 0 -320 -1880 0 -1880 0 0
793 c0 675 2 801 15 844 19 65 85 139 150 169 l50 24 1137 0 1137 0 3 -467z
m1608 -1531 l0 -89 -57 -16 c-113 -31 -227 -128 -284 -239 -44 -87 -59 -230
-33 -325 5 -19 -4 -27 -74 -62 l-80 -40 -16 64 c-18 74 -21 220 -5 297 6 29
31 95 55 146 60 125 155 222 278 282 73 37 160 66 204 69 9 1 12 -23 12 -87z
m293 53 c107 -37 214 -113 288 -206 l30 -38 -79 -40 -79 -40 -44 46 c-57 58
-109 91 -189 119 l-65 23 -3 86 -3 86 38 -7 c21 -3 68 -16 106 -29z m-86 -317
c199 -93 244 -359 86 -509 -140 -134 -364 -113 -471 44 -151 219 16 512 280
492 32 -3 79 -15 105 -27z m491 -119 c9 -25 15 -92 16 -159 1 -95 -3 -128 -22
-190 -63 -203 -227 -369 -427 -430 -227 -69 -465 -10 -637 159 -43 42 -78 82
-78 89 0 7 34 29 74 49 l75 37 53 -50 c107 -101 208 -139 347 -132 145 8 265
72 350 186 63 83 85 151 85 262 1 52 -2 109 -6 126 -7 29 -5 31 65 66 40 20
76 36 82 34 5 -1 16 -22 23 -47z"/>
<path d="M645 3067 c-131 -43 -213 -146 -223 -278 -11 -157 85 -287 241 -325
79 -20 151 -8 220 36 60 38 83 81 66 121 -23 57 -77 65 -134 19 -98 -78 -245
-3 -245 125 0 49 34 112 73 135 52 32 93 35 151 11 69 -28 100 -27 125 5 42
53 21 99 -61 134 -64 27 -158 35 -213 17z"/>
<path d="M1095 3055 l-25 -24 0 -260 c0 -143 3 -267 6 -276 10 -24 60 -46 89
-39 38 9 55 41 55 104 l1 55 72 -77 c40 -42 82 -79 93 -82 52 -15 109 49 87
97 -6 12 -34 48 -62 80 l-50 57 48 48 c93 90 92 207 -3 290 -46 40 -91 52
-199 52 -80 0 -90 -2 -112 -25z m215 -145 c11 -11 20 -24 20 -30 0 -23 -41
-50 -75 -50 l-35 0 0 50 0 50 35 0 c22 0 43 -8 55 -20z"/>
<path d="M1735 3070 c-47 -18 -54 -42 -101 -300 -45 -252 -45 -254 -26 -279
35 -47 105 -40 126 12 8 18 19 69 27 115 7 45 16 79 19 75 4 -5 19 -52 35
-107 25 -85 33 -101 59 -117 36 -22 70 -18 103 13 13 12 32 57 49 119 15 54
29 97 31 95 2 -2 12 -47 22 -100 22 -110 38 -136 88 -136 43 0 73 30 73 73 0
45 -85 478 -98 504 -7 11 -26 26 -43 32 -26 9 -39 8 -68 -6 -35 -17 -37 -23
-73 -147 -21 -71 -39 -131 -41 -132 -2 -2 -20 54 -40 123 -20 70 -45 135 -55
144 -22 21 -61 30 -87 19z"/>
<path d="M445 2245 c-30 -30 -32 -64 -4 -99 l20 -26 908 0 c986 0 941 -3 955
55 7 27 -7 62 -33 82 -12 10 -225 12 -919 13 l-903 0 -24 -25z"/>
<path d="M441 1914 c-34 -43 -26 -86 20 -109 23 -13 107 -15 517 -15 480 0
490 0 516 21 33 26 36 79 6 109 -19 19 -33 20 -529 20 l-510 0 -20 -26z"/>
<path d="M365 4315 l-25 -24 0 -261 c0 -247 1 -261 20 -280 30 -30 83 -27 109
6 20 25 21 39 21 230 l0 204 145 0 145 0 0 -204 c0 -191 1 -205 21 -230 26
-33 79 -36 109 -6 19 19 20 33 20 284 l0 265 -26 20 c-25 20 -39 21 -271 21
l-244 0 -24 -25z"/>
<path d="M3180 4113 c-35 -13 -72 -47 -90 -83 -17 -32 -20 -59 -20 -155 0
-132 10 -165 63 -212 75 -66 191 -50 251 34 27 39 30 51 34 145 2 61 0 120 -7
145 -13 49 -51 97 -92 118 -27 15 -109 19 -139 8z m84 -159 c13 -33 6 -161 -9
-174 -27 -22 -35 0 -35 96 0 86 2 94 19 94 10 0 22 -7 25 -16z"/>
<path d="M3629 4090 l-30 -30 3 -196 c3 -192 3 -196 27 -215 30 -25 76 -24
101 1 19 19 20 33 20 224 l0 205 -26 20 c-36 29 -60 26 -95 -9z"/>
<path d="M4031 4103 c-18 -9 -45 -34 -60 -56 -24 -37 -26 -51 -29 -155 -4
-131 10 -185 59 -226 89 -75 214 -50 267 54 21 41 23 56 20 166 -3 109 -5 124
-28 157 -49 72 -151 98 -229 60z m107 -223 c2 -90 -6 -117 -32 -107 -13 5 -16
23 -16 95 0 92 4 105 30 100 12 -3 16 -21 18 -88z"/>
<path d="M3628 3540 c-43 -13 -84 -47 -102 -84 -21 -46 -23 -273 -2 -314 31
-60 88 -94 156 -94 58 0 101 21 137 69 26 34 28 43 31 151 5 139 -1 172 -35
213 -47 56 -120 79 -185 59z m70 -243 c3 -92 2 -97 -18 -97 -19 0 -20 6 -20
93 0 52 3 97 7 101 19 19 28 -8 31 -97z"/>
<path d="M3192 3517 c-22 -23 -22 -30 -20 -227 l3 -203 26 -19 c37 -28 84 -17
105 23 12 25 15 64 12 221 -3 186 -4 190 -27 209 -32 26 -73 24 -99 -4z"/>
<path d="M4065 3515 c-25 -24 -25 -25 -25 -220 0 -195 0 -196 25 -220 13 -14
36 -25 50 -25 14 0 37 11 50 25 25 24 25 25 25 220 0 195 0 196 -25 220 -13
14 -36 25 -50 25 -14 0 -37 -11 -50 -25z"/>
<path d="M3161 2948 c-72 -39 -91 -85 -91 -226 0 -142 17 -188 86 -228 84 -49
194 -17 242 69 25 46 25 268 0 314 -47 85 -153 116 -237 71z m103 -144 c9 -24
7 -157 -3 -173 -5 -8 -16 -11 -25 -8 -13 5 -16 23 -16 95 0 49 3 92 7 95 11
12 31 7 37 -9z"/>
<path d="M4045 2956 c-41 -19 -83 -66 -95 -107 -13 -45 -13 -231 1 -266 42
-112 191 -149 278 -70 46 42 61 93 61 207 0 114 -15 165 -61 207 -47 43 -125
55 -184 29z m90 -236 c0 -88 -1 -95 -20 -95 -18 0 -20 8 -23 84 -3 96 1 114
25 109 16 -3 18 -16 18 -98z"/>
<path d="M3621 2934 c-20 -25 -21 -40 -21 -214 0 -174 1 -189 21 -214 16 -20
29 -26 59 -26 66 0 70 14 70 242 0 185 -1 199 -20 218 -30 30 -83 27 -109 -6z"/>
</g>
</svg>
