<?xml version="1.0" standalone="no"?>
<!DOCTYPE svg PUBLIC "-//W3C//DTD SVG 20010904//EN"
 "http://www.w3.org/TR/2001/REC-SVG-20010904/DTD/svg10.dtd">
<svg version="1.0" xmlns="http://www.w3.org/2000/svg"
 width="497.000000pt" height="118.000000pt" viewBox="0 0 497.000000 118.000000"
 preserveAspectRatio="xMidYMid meet">

<g transform="translate(0.000000,118.000000) scale(0.100000,-0.100000)"
fill="#000000" stroke="none">
<path d="M297 1114 c-4 -4 -7 -68 -7 -141 0 -123 2 -134 18 -131 15 3 17 18
20 126 l3 122 24 0 25 0 0 -125 c0 -105 2 -125 15 -125 13 0 15 20 13 138 l-3
137 -50 3 c-28 2 -54 0 -58 -4z"/>
<path d="M437 1014 c-4 -4 -7 -45 -7 -91 0 -67 3 -83 15 -83 12 0 15 15 15 75
l0 75 30 0 30 0 0 -75 c0 -61 3 -75 15 -75 13 0 15 14 13 88 l-3 87 -50 3
c-28 2 -54 0 -58 -4z"/>
<path d="M663 980 c-33 -13 -43 -42 -43 -119 l0 -71 -234 0 -234 0 -31 -26
-31 -26 0 -234 c0 -221 1 -235 20 -254 20 -20 100 -29 100 -11 0 5 14 11 30
13 20 3 30 0 30 -9 0 -9 19 -13 70 -13 39 0 70 -3 70 -7 0 -5 -6 -30 -13 -58
-12 -45 -16 -50 -46 -55 -17 -3 -33 -9 -34 -15 -1 -6 66 -11 181 -13 157 -2
182 0 182 13 0 10 -10 15 -33 15 -32 0 -34 2 -45 51 -7 28 -12 55 -12 60 0 5
47 9 105 9 92 0 106 -2 111 -17 25 -83 73 -125 148 -130 61 -5 110 18 144 67
29 44 31 131 2 177 -27 45 -91 76 -147 71 l-44 -3 3 60 3 60 46 3 c69 4 84 26
84 121 0 61 -3 76 -15 76 -12 0 -16 -18 -20 -80 l-5 -80 -80 -3 c-66 -2 -85
-7 -111 -27 -40 -31 -42 -31 -46 -2 -2 18 -10 23 -48 25 -24 2 -50 8 -57 14
-10 8 -13 57 -13 189 0 148 3 180 16 193 13 13 42 16 160 16 81 0 154 -5 165
-10 16 -9 19 -22 19 -90 0 -77 12 -108 31 -79 12 19 11 120 -1 156 -6 17 -22
35 -36 42 -30 13 -308 14 -341 1z m-43 -320 c0 -115 11 -135 80 -146 36 -6 40
-9 40 -35 0 -37 15 -36 64 1 62 47 76 42 76 -30 l0 -60 -380 0 -380 0 0 169
c0 164 1 170 22 185 19 13 60 16 250 16 l228 0 0 -100z m330 -310 c0 -11 -6
-20 -13 -20 -23 0 -60 -48 -66 -86 -9 -55 -31 -56 -31 -2 0 50 19 81 64 109
39 24 46 24 46 -1z m69 6 c35 -19 55 -42 42 -50 -16 -10 -80 27 -81 47 0 21 3
21 39 3z m1 -88 c13 -25 13 -31 0 -55 -21 -38 -81 -45 -104 -11 -20 28 -20 48
0 76 23 34 83 27 104 -10z m73 -8 c9 -33 -11 -84 -44 -116 -26 -25 -38 -29
-84 -29 -46 0 -59 4 -82 27 -24 24 -25 28 -9 34 10 4 25 -1 37 -12 11 -10 35
-18 56 -18 44 0 93 49 93 92 0 44 23 59 33 22z m-900 3 c-7 -2 -21 -2 -30 0
-10 3 -4 5 12 5 17 0 24 -2 18 -5z m480 0 c-73 -2 -193 -2 -266 0 -72 1 -13 3
133 3 146 0 205 -2 133 -3z"/>
<path d="M186 678 c-20 -28 -20 -48 0 -76 22 -31 94 -28 94 5 0 10 -8 12 -34
8 -25 -5 -35 -3 -39 9 -11 29 3 46 40 46 47 0 39 24 -9 28 -28 2 -40 -2 -52
-20z"/>
<path d="M300 646 c0 -55 13 -77 32 -58 7 7 16 7 29 -1 25 -16 36 -1 16 21
-15 17 -15 19 1 35 24 25 5 51 -42 55 l-36 3 0 -55z m60 20 c0 -3 -4 -8 -10
-11 -5 -3 -10 -1 -10 4 0 6 5 11 10 11 6 0 10 -2 10 -4z"/>
<path d="M426 683 c-2 -10 -8 -37 -11 -60 -6 -35 -4 -43 9 -43 9 0 16 8 16 18
1 16 1 16 14 0 18 -24 31 -23 44 5 l11 22 0 -22 c1 -14 7 -23 17 -23 13 0 15
8 9 53 -4 28 -9 55 -12 60 -10 16 -31 5 -38 -20 l-7 -28 -10 28 c-11 30 -34
36 -42 10z"/>
<path d="M177 534 c-20 -20 9 -24 189 -24 152 0 195 3 192 13 -4 9 -52 13
-189 15 -102 1 -188 -1 -192 -4z"/>
<path d="M172 458 c4 -10 33 -13 111 -13 147 0 146 19 -1 23 -89 2 -113 0
-110 -10z"/>
<path d="M160 900 c0 -45 3 -61 13 -58 6 3 13 23 15 46 3 37 6 42 27 42 21 0
24 -5 27 -42 2 -30 8 -43 18 -43 12 0 15 13 15 55 l0 55 -57 3 -58 3 0 -61z"/>
<path d="M728 909 c-12 -6 -18 -22 -18 -43 0 -41 24 -65 48 -49 21 12 28 69
11 89 -13 16 -18 17 -41 3z m19 -51 c-3 -8 -6 -5 -6 6 -1 11 2 17 5 13 3 -3 4
-12 1 -19z"/>
<path d="M902 908 c-24 -24 -9 -98 19 -98 16 0 39 33 39 55 0 22 -23 55 -39
55 -4 0 -12 -5 -19 -12z m25 -50 c-3 -8 -6 -5 -6 6 -1 11 2 17 5 13 3 -3 4
-12 1 -19z"/>
<path d="M822 863 c2 -27 8 -48 13 -48 6 0 11 21 13 48 3 38 0 47 -13 47 -13
0 -16 -9 -13 -47z"/>
<path d="M1237 833 c-4 -3 -7 -124 -7 -268 0 -190 3 -264 12 -273 13 -13 126
-16 145 -4 9 5 13 51 15 146 l3 138 68 -80 c66 -80 67 -82 67 -140 0 -45 4
-61 16 -66 23 -9 127 -7 142 2 9 7 12 69 10 278 l-3 269 -80 0 -80 0 -5 -94
-5 -94 -83 97 -84 96 -62 0 c-35 0 -66 -3 -69 -7z"/>
<path d="M1827 834 c-13 -13 -8 -529 5 -542 19 -19 382 -17 397 2 7 8 11 37 9
68 l-3 53 -120 5 -120 5 -3 38 -3 37 90 0 91 0 0 65 0 65 -90 0 -90 0 0 35 0
34 123 3 122 3 0 65 0 65 -201 3 c-110 1 -203 -1 -207 -4z"/>
<path d="M2337 833 c-4 -3 -7 -32 -7 -64 0 -52 4 -64 45 -123 25 -37 45 -68
45 -71 0 -3 -20 -34 -45 -71 -43 -63 -45 -68 -45 -139 0 -83 2 -85 85 -85 82
0 85 3 85 74 0 57 3 66 35 102 l35 39 35 -39 c32 -36 35 -45 35 -102 0 -71 3
-74 85 -74 83 0 85 2 85 85 0 71 -2 76 -45 139 -25 37 -45 68 -45 71 0 3 20
35 45 71 44 63 46 69 43 128 l-3 61 -82 3 -83 3 0 -53 c0 -45 -5 -59 -31 -91
-17 -20 -35 -37 -40 -37 -5 0 -22 19 -39 42 -24 32 -30 51 -30 90 l0 48 -78 0
c-43 0 -82 -3 -85 -7z"/>
<path d="M2922 563 l3 -278 209 -3 c148 -2 213 1 222 9 12 9 14 41 12 148 l-3
136 -74 3 c-53 2 -77 -1 -82 -10 -5 -7 -9 -44 -9 -81 l0 -68 -52 3 -53 3 -5
205 -5 205 -83 3 -82 3 2 -278z"/>
<path d="M3454 827 c-3 -8 -4 -39 -2 -68 l3 -54 53 -3 52 -3 0 -135 0 -134
-43 0 c-56 0 -67 -13 -67 -75 0 -28 5 -56 12 -63 17 -17 349 -17 366 0 7 7 12
35 12 63 0 62 -11 75 -67 75 l-43 0 0 134 0 135 53 3 52 3 0 65 0 65 -188 3
c-153 2 -188 0 -193 -11z"/>
<path d="M3947 833 c-4 -3 -7 -127 -7 -274 0 -301 -7 -279 85 -279 85 0 85 0
85 101 l0 88 83 3 82 3 0 65 0 65 -82 3 -83 3 0 44 0 44 113 3 112 3 3 68 3
67 -194 0 c-106 0 -197 -3 -200 -7z"/>
<path d="M4410 726 l0 -115 75 -100 c73 -99 75 -102 75 -160 0 -44 4 -60 16
-65 28 -11 140 -6 152 6 7 7 12 37 12 68 0 53 3 60 69 149 73 100 81 123 81
242 0 89 0 89 -91 89 l-79 0 0 -88 c0 -83 -2 -92 -30 -130 -17 -23 -36 -42
-44 -42 -8 0 -25 17 -37 38 -19 29 -25 56 -29 127 l-5 90 -82 3 -83 3 0 -115z"/>
<path d="M736 793 c-3 -3 -6 -26 -6 -50 0 -32 4 -43 15 -43 11 0 15 12 15 44
0 43 -10 63 -24 49z"/>
<path d="M811 786 c-7 -8 -11 -30 -9 -48 2 -26 8 -34 27 -36 27 -4 41 12 41
49 0 43 -35 64 -59 35z m26 -48 c-3 -7 -5 -2 -5 12 0 14 2 19 5 13 2 -7 2 -19
0 -25z"/>
<path d="M910 750 c0 -37 4 -50 13 -47 7 2 12 21 12 47 0 26 -5 45 -12 48 -9
2 -13 -11 -13 -48z"/>
<path d="M714 656 c-8 -33 -2 -57 18 -69 26 -17 50 9 46 52 -3 31 -7 36 -30
39 -22 3 -29 -2 -34 -22z m33 -38 c-3 -7 -5 -2 -5 12 0 14 2 19 5 13 2 -7 2
-19 0 -25z"/>
<path d="M820 629 c0 -66 24 -62 28 4 2 37 0 47 -12 47 -12 0 -16 -12 -16 -51z"/>
<path d="M897 673 c-15 -14 -7 -84 9 -90 38 -14 71 49 43 83 -12 15 -41 19
-52 7z m30 -55 c-3 -7 -5 -2 -5 12 0 14 2 19 5 13 2 -7 2 -19 0 -25z"/>
</g>
</svg>
